<svg width="126" height="40" viewBox="0 0 126 40" fill="none" xmlns="http://www.w3.org/2000/svg">
<path d="M18.52 26.8L23.68 0.199997H26.64L32.36 26.8L37.52 0.199997H39.8L33.48 30H29.04L24.24 8.32L19.64 30H15.2L8.84 2.28C7.82667 2.28 6.97333 2.46667 6.28 2.84C5.58667 3.18667 5.02667 3.66667 4.6 4.28C4.17333 4.86667 3.85333 5.54667 3.64 6.32C3.45333 7.06667 3.36 7.84 3.36 8.64C3.36 9.78667 3.52 10.8133 3.84 11.72C4.16 12.6267 4.62667 13.4667 5.24 14.24C4.70667 14.24 4.17333 14.16 3.64 14C3.10667 13.84 2.62667 13.56 2.2 13.16C1.77333 12.76 1.42667 12.2267 1.16 11.56C0.893333 10.8667 0.76 10 0.76 8.96C0.76 7.76 0.986667 6.61333 1.44 5.52C1.89333 4.42666 2.56 3.48 3.44 2.68C4.32 1.85333 5.4 1.2 6.68 0.719998C7.96 0.239998 9.42667 -2.38419e-06 11.08 -2.38419e-06C11.3733 -2.38419e-06 11.6533 0.0133316 11.92 0.0399995C12.2133 0.0666658 12.5067 0.106665 12.8 0.159998L18.52 26.8ZM45.6838 2V13.04C46.0838 12.32 46.4838 11.7467 46.8838 11.32C47.3104 10.8667 47.7371 10.5333 48.1638 10.32C48.5904 10.1067 48.9904 9.97333 49.3638 9.92C49.7638 9.84 50.1371 9.8 50.4838 9.8C51.6838 9.8 52.6438 10.0267 53.3638 10.48C54.1104 10.9333 54.6704 11.52 55.0438 12.24C55.4171 12.9333 55.6571 13.7067 55.7638 14.56C55.8971 15.3867 55.9638 16.1867 55.9638 16.96C55.9638 17.44 55.9504 17.9733 55.9238 18.56C55.8971 19.12 55.8704 19.7067 55.8438 20.32C55.8171 20.9067 55.7904 21.5067 55.7638 22.12C55.7371 22.7067 55.7238 23.2533 55.7238 23.76C55.7238 23.9733 55.7371 24.28 55.7638 24.68C55.7904 25.0533 55.8571 25.4267 55.9638 25.8C56.0704 26.1733 56.2438 26.5067 56.4838 26.8C56.7238 27.0667 57.0704 27.2 57.5238 27.2C58.1371 27.2 58.6838 26.8533 59.1638 26.16C59.6704 25.4667 60.0838 24.36 60.4037 22.84H61.8837C61.5904 24.52 61.2171 25.8533 60.7638 26.84C60.3104 27.8 59.8304 28.5333 59.3238 29.04C58.8171 29.5467 58.3104 29.8667 57.8038 30C57.2971 30.16 56.8304 30.24 56.4038 30.24C55.5504 30.24 54.8304 30.08 54.2438 29.76C53.6571 29.4133 53.1771 28.96 52.8038 28.4C52.4304 27.84 52.1504 27.1867 51.9638 26.44C51.8038 25.6933 51.7238 24.92 51.7238 24.12C51.7238 23.88 51.7238 23.44 51.7238 22.8C51.7504 22.1333 51.7638 21.4267 51.7638 20.68C51.7904 19.9333 51.8038 19.2267 51.8038 18.56C51.8304 17.8933 51.8438 17.4267 51.8438 17.16C51.8438 16.3067 51.7771 15.6 51.6438 15.04C51.5104 14.48 51.3238 14.04 51.0838 13.72C50.8438 13.4 50.5638 13.1733 50.2438 13.04C49.9504 12.9067 49.6304 12.84 49.2838 12.84C48.4571 12.84 47.7371 13.1733 47.1238 13.84C46.5371 14.5067 46.0571 15.6267 45.6838 17.2V30H41.6838V2.56L45.6838 2ZM64.3956 10V23.6C64.3956 23.8667 64.409 24.2 64.4356 24.6C64.4623 25 64.529 25.4 64.6356 25.8C64.769 26.1733 64.9556 26.5067 65.1956 26.8C65.4356 27.0667 65.769 27.2 66.1956 27.2C67.5023 27.2 68.4623 25.7467 69.0756 22.84H70.5556C70.2623 24.52 69.889 25.8533 69.4356 26.84C68.9823 27.8 68.5023 28.5333 67.9956 29.04C67.489 29.5467 66.969 29.8667 66.4356 30C65.9023 30.16 65.4223 30.24 64.9956 30.24C64.0623 30.24 63.3023 30.0667 62.7156 29.72C62.129 29.3467 61.6623 28.88 61.3156 28.32C60.969 27.76 60.729 27.1333 60.5956 26.44C60.4623 25.7467 60.3956 25.08 60.3956 24.44V10H64.3956ZM59.6756 4.24C59.6756 3.52 59.929 2.89333 60.4356 2.36C60.9423 1.82667 61.569 1.56 62.3156 1.56C63.0356 1.56 63.6623 1.82667 64.1956 2.36C64.729 2.89333 64.9956 3.52 64.9956 4.24C64.9956 4.98666 64.729 5.61333 64.1956 6.12C63.6623 6.62667 63.0356 6.88 62.3156 6.88C61.569 6.88 60.9423 6.62667 60.4356 6.12C59.929 5.61333 59.6756 4.98666 59.6756 4.24ZM84.4275 22.84C83.6542 23.9067 82.8542 24.8 82.0275 25.52C81.2275 26.2133 80.4408 26.8267 79.6675 27.36C79.3742 27.8933 79.0008 28.3467 78.5475 28.72C78.0942 29.0667 77.6008 29.36 77.0675 29.6C76.5608 29.8133 76.0408 29.9733 75.5075 30.08C75.0008 30.1867 74.5342 30.24 74.1075 30.24C72.9342 30.24 71.9608 30.0533 71.1875 29.68C70.4408 29.3067 69.8408 28.84 69.3875 28.28C68.9342 27.6933 68.6142 27.0533 68.4275 26.36C68.2408 25.64 68.1475 24.96 68.1475 24.32C68.1475 23.6267 68.2808 23.0267 68.5475 22.52C68.8408 21.9867 69.1875 21.6133 69.5875 21.4C70.2808 19.4 70.9608 17.4267 71.6275 15.48C72.2942 13.5067 72.7342 11.5333 72.9475 9.56L76.9875 8.76C77.6275 11.2933 78.1475 13.36 78.5475 14.96C78.9742 16.56 79.3075 17.92 79.5475 19.04C79.8142 20.1333 80.0008 21.1067 80.1075 21.96C80.2408 22.7867 80.3075 23.7067 80.3075 24.72C80.7608 24.4267 81.1875 24.12 81.5875 23.8C81.9875 23.4533 82.3742 23.1333 82.7475 22.84H84.4275ZM76.0675 24.44C76.0675 23.6133 76.0142 22.88 75.9075 22.24C75.8275 21.6 75.6942 20.8933 75.5075 20.12C75.3208 19.3467 75.0808 18.4133 74.7875 17.32C74.5208 16.2 74.2008 14.7733 73.8275 13.04C73.6675 14.5333 73.3342 15.96 72.8275 17.32C72.3475 18.68 71.9075 20.08 71.5075 21.52C71.7475 21.68 71.9475 21.9067 72.1075 22.2C72.2942 22.4667 72.3875 22.8267 72.3875 23.28C72.3875 23.7867 72.2542 24.1733 71.9875 24.44C71.7208 24.7067 71.4275 24.84 71.1075 24.84C70.6808 24.84 70.3208 24.6533 70.0275 24.28C70.2408 25.2133 70.6142 25.9467 71.1475 26.48C71.6808 26.9867 72.3875 27.24 73.2675 27.24C74.1208 27.24 74.8008 27.0267 75.3075 26.6C75.8142 26.1467 76.0675 25.4267 76.0675 24.44ZM86.7394 8.52V11.6C87.246 11.0667 87.8327 10.64 88.4994 10.32C89.1927 9.97333 89.9927 9.8 90.8994 9.8C91.8327 9.8 92.6994 10 93.4994 10.4C94.2994 10.8 94.9927 11.4133 95.5794 12.24C96.1927 13.04 96.6727 14.0667 97.0194 15.32C97.366 16.5467 97.5394 18.0133 97.5394 19.72C97.5394 23.0533 96.9127 25.64 95.6594 27.48C94.406 29.32 92.7394 30.24 90.6594 30.24C89.7794 30.24 89.0194 30.08 88.3794 29.76C87.766 29.4133 87.2194 28.9333 86.7394 28.32V39L82.6994 40V8.52H86.7394ZM89.4994 12.4C88.9127 12.4 88.3794 12.5733 87.8994 12.92C87.446 13.24 87.0594 13.7067 86.7394 14.32V26.32C87.1127 26.8 87.526 27.1467 87.9794 27.36C88.4594 27.5733 88.926 27.68 89.3794 27.68C90.046 27.68 90.6327 27.4667 91.1394 27.04C91.646 26.6133 92.0727 26.04 92.4194 25.32C92.7927 24.5733 93.0727 23.7067 93.2594 22.72C93.446 21.7333 93.5394 20.68 93.5394 19.56C93.5394 18.1733 93.406 17.0267 93.1394 16.12C92.8994 15.1867 92.5794 14.4533 92.1794 13.92C91.7794 13.36 91.3394 12.9733 90.8594 12.76C90.3794 12.52 89.926 12.4 89.4994 12.4ZM112.133 15C112.133 16.8667 111.36 18.4267 109.813 19.68C108.293 20.9333 106.173 21.7067 103.453 22C103.56 23.0667 103.747 23.9333 104.013 24.6C104.307 25.2667 104.653 25.8 105.053 26.2C105.453 26.5733 105.907 26.84 106.413 27C106.947 27.1333 107.493 27.2 108.053 27.2C109.333 27.2 110.533 26.8667 111.653 26.2C112.773 25.5333 113.68 24.4133 114.373 22.84H115.653C115.307 23.8267 114.827 24.7733 114.213 25.68C113.6 26.56 112.88 27.3467 112.053 28.04C111.227 28.7067 110.333 29.24 109.373 29.64C108.413 30.04 107.427 30.24 106.413 30.24C105.48 30.24 104.573 30.08 103.693 29.76C102.84 29.44 102.08 28.92 101.413 28.2C100.747 27.4533 100.2 26.4933 99.7734 25.32C99.3734 24.1467 99.1734 22.7067 99.1734 21C99.1734 19.88 99.2934 18.6667 99.5334 17.36C99.8001 16.0533 100.227 14.84 100.813 13.72C101.427 12.6 102.213 11.6667 103.173 10.92C104.16 10.1733 105.373 9.8 106.813 9.8C107.48 9.8 108.12 9.88 108.733 10.04C109.373 10.1733 109.947 10.44 110.453 10.84C110.96 11.2133 111.36 11.7333 111.653 12.4C111.973 13.0667 112.133 13.9333 112.133 15ZM103.413 20.44C105.307 20.1467 106.8 19.48 107.893 18.44C109.013 17.4 109.573 16.12 109.573 14.6C109.573 13.5867 109.4 12.8667 109.053 12.44C108.707 11.9867 108.213 11.76 107.573 11.76C106.88 11.76 106.267 12.0267 105.733 12.56C105.227 13.0933 104.8 13.7867 104.453 14.64C104.107 15.4667 103.84 16.4 103.653 17.44C103.493 18.4533 103.413 19.4533 103.413 20.44ZM118.34 10V13.36C118.66 12.88 118.967 12.4267 119.26 12C119.58 11.5733 119.927 11.2 120.3 10.88C120.673 10.56 121.087 10.3067 121.54 10.12C121.993 9.90667 122.5 9.8 123.06 9.8C123.967 9.8 124.633 10.04 125.06 10.52C125.487 10.9733 125.7 11.5333 125.7 12.2C125.7 12.6 125.633 12.9333 125.5 13.2C125.367 13.4667 125.207 13.68 125.02 13.84C124.833 14 124.633 14.12 124.42 14.2C124.207 14.2533 124.02 14.28 123.86 14.28C123.62 14.28 123.42 14.2267 123.26 14.12C123.127 14.0133 122.98 13.9067 122.82 13.8C122.687 13.6667 122.527 13.5467 122.34 13.44C122.153 13.3333 121.913 13.28 121.62 13.28C121.007 13.28 120.42 13.4933 119.86 13.92C119.3 14.3467 118.793 14.8 118.34 15.28V30H114.34V10H118.34Z" fill="black"/>
</svg>
